<svg width="3460" height="497" viewBox="0 0 3460 497" fill="none" xmlns="http://www.w3.org/2000/svg">
<path d="M1181.53 376.547V227.415H1032.71V292.66H1108.59V341.717C1089.5 355.453 1065.02 362.321 1037.6 362.321C976.899 362.321 933.818 316.208 933.818 253.415V252.434C933.818 194.057 977.388 145.491 1032.22 145.491C1071.87 145.491 1095.37 158.245 1121.81 180.321L1169.29 122.925C1133.56 92.5094 1096.35 75.8302 1034.67 75.8302C930.881 75.8302 855 155.792 855 253.415V254.396C855 355.943 928.433 431 1035.16 431C1097.82 431 1146.28 406.472 1181.53 376.547Z" fill="#1E293B"/>
<path d="M1488.08 294.132V293.151C1488.08 217.604 1427.86 157.264 1346.6 157.264C1264.84 157.264 1204.14 218.585 1204.14 294.132V295.113C1204.14 370.66 1264.35 431 1345.62 431C1427.37 431 1488.08 369.679 1488.08 294.132ZM1414.65 295.113C1414.65 333.868 1389.19 366.736 1346.6 366.736C1305.48 366.736 1277.57 332.887 1277.57 294.132V293.151C1277.57 254.396 1303.03 221.528 1345.62 221.528C1386.74 221.528 1414.65 255.377 1414.65 294.132V295.113Z" fill="#1E293B"/>
<path d="M1953.58 253.415V252.434C1953.58 155.792 1879.17 81.717 1771.46 81.717H1637.82V425.113H1771.46C1879.17 425.113 1953.58 350.057 1953.58 253.415ZM1874.76 254.396C1874.76 315.226 1833.15 356.924 1771.46 356.924H1713.21V149.906H1771.46C1833.15 149.906 1874.76 192.585 1874.76 253.415V254.396Z" fill="#1E293B"/>
<path d="M2228.33 301V300.019C2228.33 225.453 2188.18 157.264 2100.56 157.264C2024.18 157.264 1970.82 219.075 1970.82 294.132V295.113C1970.82 375.566 2029.08 431 2107.9 431C2155.38 431 2190.63 412.358 2215.11 381.943L2172.52 344.17C2151.96 363.302 2133.84 371.151 2108.88 371.151C2075.59 371.151 2052.09 353.491 2044.75 319.641H2227.35C2227.84 312.774 2228.33 308.358 2228.33 301ZM2155.87 273.038H2043.77C2049.64 239.189 2069.71 217.113 2100.56 217.113C2131.89 217.113 2151.47 239.679 2155.87 273.038Z" fill="#1E293B"/>
<path d="M2401.77 414.321V354.472C2391 360.358 2378.76 363.792 2365.05 363.792C2348.41 363.792 2341.06 355.453 2341.06 338.283V225.943H2402.75V162.17H2341.06V94.9623H2266.65V162.17H2235.32V225.943H2266.65V350.547C2266.65 411.377 2297.49 429.528 2343.02 429.528C2367.99 429.528 2386.1 423.641 2401.77 414.321Z" fill="#1E293B"/>
<path d="M2653.91 425.113V272.547C2653.91 201.415 2618.17 159.226 2536.9 159.226C2492.35 159.226 2463.96 167.566 2435.08 180.321L2453.68 237.226C2477.67 228.396 2497.74 223 2526.13 223C2563.34 223 2582.43 240.17 2582.43 271.075V275.491C2563.83 269.113 2544.74 264.698 2518.3 264.698C2456.13 264.698 2412.56 291.189 2412.56 348.585V349.566C2412.56 401.566 2453.19 430.019 2502.63 430.019C2538.86 430.019 2563.83 416.774 2581.94 396.66V425.113H2653.91ZM2583.41 332.396C2583.41 359.377 2559.91 378.509 2525.15 378.509C2501.17 378.509 2484.52 366.736 2484.52 346.623V345.641C2484.52 322.094 2504.1 309.34 2535.92 309.34C2554.04 309.34 2570.68 313.264 2583.41 319.151V332.396Z" fill="#1E293B"/>
<path d="M2768.36 133.226V67H2690.03V133.226H2768.36ZM2766.4 425.113V162.17H2691.99V425.113H2766.4Z" fill="#1E293B"/>
<path d="M2884.76 425.113V67H2810.34V425.113H2884.76Z" fill="#1E293B"/>
<path d="M3170.05 301V300.019C3170.05 225.453 3129.9 157.264 3042.27 157.264C2965.9 157.264 2912.54 219.075 2912.54 294.132V295.113C2912.54 375.566 2970.8 431 3049.62 431C3097.1 431 3132.35 412.358 3156.83 381.943L3114.24 344.17C3093.68 363.302 3075.56 371.151 3050.6 371.151C3017.31 371.151 2993.81 353.491 2986.47 319.641H3169.07C3169.56 312.774 3170.05 308.358 3170.05 301ZM3097.59 273.038H2985.49C2991.36 239.189 3011.43 217.113 3042.27 217.113C3073.61 217.113 3093.19 239.679 3097.59 273.038Z" fill="#1E293B"/>
<path d="M3460 425.113V67H3385.59V196.509C3367.96 175.415 3343.49 157.264 3303.83 157.264C3241.66 157.264 3184.38 205.34 3184.38 293.151V294.132C3184.38 381.943 3242.64 430.019 3303.83 430.019C3342.51 430.019 3367.47 411.868 3385.59 387.34V425.113H3460ZM3386.57 294.132C3386.57 337.792 3357.68 366.736 3322.93 366.736C3288.17 366.736 3258.79 337.792 3258.79 294.132V293.151C3258.79 249 3288.17 220.547 3322.93 220.547C3357.68 220.547 3386.57 249.491 3386.57 293.151V294.132Z" fill="#1E293B"/>
<path d="M303.135 450.967L454.067 363.928C543.026 312.627 543.027 184.373 454.067 133.072L303.135 46.0326C343.662 17.3198 393.184 0.441974 446.653 0.441974C583.811 0.441974 695 111.501 695 248.5C695 385.499 583.811 496.558 446.653 496.558C393.184 496.558 343.662 479.68 303.135 450.967Z" fill="#6366F1"/>
<path d="M417 197.199C456.538 219.999 456.538 277.001 417 299.801L88.9599 488.975C49.4221 511.776 -1.99561e-06 483.275 0 437.674L1.65574e-05 59.326C1.8553e-05 13.7248 49.4223 -14.7759 88.96 8.02475L417 197.199Z" fill="#4F46E5"/>
</svg>
