<svg width="16" height="16" viewBox="0 0 16 16" fill="none" xmlns="http://www.w3.org/2000/svg">
<rect width="16" height="16" rx="5" fill="white"/>
<path d="M7.29898 11.1557L9.65729 9.79575C11.0473 8.99417 11.0473 6.99021 9.65729 6.18862L7.29898 4.82864C7.93222 4.38 8.706 4.11628 9.54146 4.11628C11.6846 4.11628 13.4219 5.85158 13.4219 7.99219C13.4219 10.1328 11.6846 11.8681 9.54146 11.8681C8.706 11.8681 7.93222 11.6044 7.29898 11.1557Z" fill="#6366F1"/>
<path d="M9.07813 7.1906C9.6959 7.54686 9.6959 8.43751 9.07813 8.79377L3.9525 11.7496C3.33472 12.1059 2.5625 11.6605 2.5625 10.948L2.5625 5.03634C2.5625 4.32382 3.33472 3.8785 3.9525 4.23476L9.07813 7.1906Z" fill="#4F46E5"/>
</svg>
